<svg xmlns="http://www.w3.org/2000/svg" xmlns:xlink="http://www.w3.org/1999/xlink" contentStyleType="text/css" height="603px" preserveAspectRatio="none" style="width:3141px;height:603px;background:#FFFFFF;" version="1.1" viewBox="0 0 3141 603" width="3141px" zoomAndPan="magnify"><defs/><g><!--class IUser--><g id="elem_IUser"><rect codeLine="1" fill="#F1F1F1" height="80.5938" id="IUser" rx="2.5" ry="2.5" style="stroke:#181818;stroke-width:0.5;" width="275" x="7" y="318.71"/><ellipse cx="122.75" cy="334.71" fill="#B4A7E5" rx="11" ry="11" style="stroke:#181818;stroke-width:1.0;"/><path d="M118.6719,330.4756 L118.6719,328.3194 L126.0625,328.3194 L126.0625,330.4756 L123.5938,330.4756 L123.5938,338.5538 L126.0625,338.5538 L126.0625,340.71 L118.6719,340.71 L118.6719,338.5538 L121.1406,338.5538 L121.1406,330.4756 L118.6719,330.4756 Z " fill="#000000"/><text fill="#000000" font-family="sans-serif" font-size="14" font-style="italic" lengthAdjust="spacing" textLength="35" x="143.25" y="339.5567">IUser</text><line style="stroke:#181818;stroke-width:0.5;" x1="8" x2="281" y1="350.71" y2="350.71"/><line style="stroke:#181818;stroke-width:0.5;" x1="8" x2="281" y1="358.71" y2="358.71"/><ellipse cx="18" cy="372.3584" fill="#84BE84" rx="3" ry="3" style="stroke:#038048;stroke-width:1.0;"/><text fill="#000000" font-family="sans-serif" font-size="14" lengthAdjust="spacing" textLength="148" x="27" y="375.7051">String getUsername()</text><ellipse cx="18" cy="388.6553" fill="#84BE84" rx="3" ry="3" style="stroke:#038048;stroke-width:1.0;"/><text fill="#000000" font-family="sans-serif" font-size="14" lengthAdjust="spacing" textLength="249" x="27" y="392.002">void setUsername(String username)</text></g><!--class ISolarSystemSimulation--><g id="elem_ISolarSystemSimulation"><rect codeLine="6" fill="#F1F1F1" height="64.2969" id="ISolarSystemSimulation" rx="2.5" ry="2.5" style="stroke:#181818;stroke-width:0.5;" width="345" x="317" y="72.19"/><ellipse cx="405.75" cy="88.19" fill="#B4A7E5" rx="11" ry="11" style="stroke:#181818;stroke-width:1.0;"/><path d="M401.6719,83.9556 L401.6719,81.7994 L409.0625,81.7994 L409.0625,83.9556 L406.5938,83.9556 L406.5938,92.0338 L409.0625,92.0338 L409.0625,94.19 L401.6719,94.19 L401.6719,92.0338 L404.1406,92.0338 L404.1406,83.9556 L401.6719,83.9556 Z " fill="#000000"/><text fill="#000000" font-family="sans-serif" font-size="14" font-style="italic" lengthAdjust="spacing" textLength="159" x="426.25" y="93.0367">ISolarSystemSimulation</text><line style="stroke:#181818;stroke-width:0.5;" x1="318" x2="661" y1="104.19" y2="104.19"/><line style="stroke:#181818;stroke-width:0.5;" x1="318" x2="661" y1="112.19" y2="112.19"/><ellipse cx="328" cy="125.8384" fill="#84BE84" rx="3" ry="3" style="stroke:#038048;stroke-width:1.0;"/><text fill="#000000" font-family="sans-serif" font-size="14" lengthAdjust="spacing" textLength="319" x="337" y="129.1851">SolarSystemData simulateSystem(String input)</text></g><!--class IProduct--><g id="elem_IProduct"><rect codeLine="10" fill="#F1F1F1" height="80.5938" id="IProduct" rx="2.5" ry="2.5" style="stroke:#181818;stroke-width:0.5;" width="213" x="965" y="516.35"/><ellipse cx="1038.75" cy="532.35" fill="#B4A7E5" rx="11" ry="11" style="stroke:#181818;stroke-width:1.0;"/><path d="M1034.6719,528.1156 L1034.6719,525.9594 L1042.0625,525.9594 L1042.0625,528.1156 L1039.5938,528.1156 L1039.5938,536.1938 L1042.0625,536.1938 L1042.0625,538.35 L1034.6719,538.35 L1034.6719,536.1938 L1037.1406,536.1938 L1037.1406,528.1156 L1034.6719,528.1156 Z " fill="#000000"/><text fill="#000000" font-family="sans-serif" font-size="14" font-style="italic" lengthAdjust="spacing" textLength="57" x="1059.25" y="537.1967">IProduct</text><line style="stroke:#181818;stroke-width:0.5;" x1="966" x2="1177" y1="548.35" y2="548.35"/><line style="stroke:#181818;stroke-width:0.5;" x1="966" x2="1177" y1="556.35" y2="556.35"/><ellipse cx="976" cy="569.9984" fill="#84BE84" rx="3" ry="3" style="stroke:#038048;stroke-width:1.0;"/><text fill="#000000" font-family="sans-serif" font-size="14" lengthAdjust="spacing" textLength="117" x="985" y="573.3451">String getName()</text><ellipse cx="976" cy="586.2953" fill="#84BE84" rx="3" ry="3" style="stroke:#038048;stroke-width:1.0;"/><text fill="#000000" font-family="sans-serif" font-size="14" lengthAdjust="spacing" textLength="187" x="985" y="589.642">void setName(String name)</text></g><!--class ICompany--><g id="elem_ICompany"><rect codeLine="15" fill="#F1F1F1" height="80.5938" id="ICompany" rx="2.5" ry="2.5" style="stroke:#181818;stroke-width:0.5;" width="342" x="1212.5" y="318.71"/><ellipse cx="1345.25" cy="334.71" fill="#B4A7E5" rx="11" ry="11" style="stroke:#181818;stroke-width:1.0;"/><path d="M1341.1719,330.4756 L1341.1719,328.3194 L1348.5625,328.3194 L1348.5625,330.4756 L1346.0938,330.4756 L1346.0938,338.5538 L1348.5625,338.5538 L1348.5625,340.71 L1341.1719,340.71 L1341.1719,338.5538 L1343.6406,338.5538 L1343.6406,330.4756 L1341.1719,330.4756 Z " fill="#000000"/><text fill="#000000" font-family="sans-serif" font-size="14" font-style="italic" lengthAdjust="spacing" textLength="68" x="1365.75" y="339.5567">ICompany</text><line style="stroke:#181818;stroke-width:0.5;" x1="1213.5" x2="1553.5" y1="350.71" y2="350.71"/><line style="stroke:#181818;stroke-width:0.5;" x1="1213.5" x2="1553.5" y1="358.71" y2="358.71"/><ellipse cx="1223.5" cy="372.3584" fill="#84BE84" rx="3" ry="3" style="stroke:#038048;stroke-width:1.0;"/><text fill="#000000" font-family="sans-serif" font-size="14" lengthAdjust="spacing" textLength="182" x="1232.5" y="375.7051">String getCompanyName()</text><ellipse cx="1223.5" cy="388.6553" fill="#84BE84" rx="3" ry="3" style="stroke:#038048;stroke-width:1.0;"/><text fill="#000000" font-family="sans-serif" font-size="14" lengthAdjust="spacing" textLength="316" x="1232.5" y="392.002">void setCompanyName(String companyName)</text></g><!--class IOffer--><g id="elem_IOffer"><rect codeLine="20" fill="#F1F1F1" height="80.5938" id="IOffer" rx="2.5" ry="2.5" style="stroke:#181818;stroke-width:0.5;" width="226" x="1589.5" y="318.71"/><ellipse cx="1680.25" cy="334.71" fill="#B4A7E5" rx="11" ry="11" style="stroke:#181818;stroke-width:1.0;"/><path d="M1676.1719,330.4756 L1676.1719,328.3194 L1683.5625,328.3194 L1683.5625,330.4756 L1681.0938,330.4756 L1681.0938,338.5538 L1683.5625,338.5538 L1683.5625,340.71 L1676.1719,340.71 L1676.1719,338.5538 L1678.6406,338.5538 L1678.6406,330.4756 L1676.1719,330.4756 Z " fill="#000000"/><text fill="#000000" font-family="sans-serif" font-size="14" font-style="italic" lengthAdjust="spacing" textLength="36" x="1700.75" y="339.5567">IOffer</text><line style="stroke:#181818;stroke-width:0.5;" x1="1590.5" x2="1814.5" y1="350.71" y2="350.71"/><line style="stroke:#181818;stroke-width:0.5;" x1="1590.5" x2="1814.5" y1="358.71" y2="358.71"/><ellipse cx="1600.5" cy="372.3584" fill="#84BE84" rx="3" ry="3" style="stroke:#038048;stroke-width:1.0;"/><text fill="#000000" font-family="sans-serif" font-size="14" lengthAdjust="spacing" textLength="124" x="1609.5" y="375.7051">String getDetails()</text><ellipse cx="1600.5" cy="388.6553" fill="#84BE84" rx="3" ry="3" style="stroke:#038048;stroke-width:1.0;"/><text fill="#000000" font-family="sans-serif" font-size="14" lengthAdjust="spacing" textLength="200" x="1609.5" y="392.002">void setDetails(String details)</text></g><!--class IMarketplace--><g id="elem_IMarketplace"><rect codeLine="25" fill="#F1F1F1" height="80.5938" id="IMarketplace" rx="2.5" ry="2.5" style="stroke:#181818;stroke-width:0.5;" width="254" x="429.5" y="318.71"/><ellipse cx="508.75" cy="334.71" fill="#B4A7E5" rx="11" ry="11" style="stroke:#181818;stroke-width:1.0;"/><path d="M504.6719,330.4756 L504.6719,328.3194 L512.0625,328.3194 L512.0625,330.4756 L509.5938,330.4756 L509.5938,338.5538 L512.0625,338.5538 L512.0625,340.71 L504.6719,340.71 L504.6719,338.5538 L507.1406,338.5538 L507.1406,330.4756 L504.6719,330.4756 Z " fill="#000000"/><text fill="#000000" font-family="sans-serif" font-size="14" font-style="italic" lengthAdjust="spacing" textLength="87" x="529.25" y="339.5567">IMarketplace</text><line style="stroke:#181818;stroke-width:0.5;" x1="430.5" x2="682.5" y1="350.71" y2="350.71"/><line style="stroke:#181818;stroke-width:0.5;" x1="430.5" x2="682.5" y1="358.71" y2="358.71"/><ellipse cx="440.5" cy="372.3584" fill="#84BE84" rx="3" ry="3" style="stroke:#038048;stroke-width:1.0;"/><text fill="#000000" font-family="sans-serif" font-size="14" lengthAdjust="spacing" textLength="174" x="449.5" y="375.7051">void postOffer(Offer offer)</text><ellipse cx="440.5" cy="388.6553" fill="#84BE84" rx="3" ry="3" style="stroke:#038048;stroke-width:1.0;"/><text fill="#000000" font-family="sans-serif" font-size="14" lengthAdjust="spacing" textLength="228" x="449.5" y="392.002">List&lt;Product&gt; browseProducts()</text></g><!--class IDataProvider--><g id="elem_IDataProvider"><rect codeLine="30" fill="#F1F1F1" height="64.2969" id="IDataProvider" rx="2.5" ry="2.5" style="stroke:#181818;stroke-width:0.5;" width="163" x="1851" y="326.86"/><ellipse cx="1884" cy="342.86" fill="#B4A7E5" rx="11" ry="11" style="stroke:#181818;stroke-width:1.0;"/><path d="M1879.9219,338.6256 L1879.9219,336.4694 L1887.3125,336.4694 L1887.3125,338.6256 L1884.8438,338.6256 L1884.8438,346.7038 L1887.3125,346.7038 L1887.3125,348.86 L1879.9219,348.86 L1879.9219,346.7038 L1882.3906,346.7038 L1882.3906,338.6256 L1879.9219,338.6256 Z " fill="#000000"/><text fill="#000000" font-family="sans-serif" font-size="14" font-style="italic" lengthAdjust="spacing" textLength="91" x="1902" y="347.7067">IDataProvider</text><line style="stroke:#181818;stroke-width:0.5;" x1="1852" x2="2013" y1="358.86" y2="358.86"/><line style="stroke:#181818;stroke-width:0.5;" x1="1852" x2="2013" y1="366.86" y2="366.86"/><ellipse cx="1862" cy="380.5084" fill="#84BE84" rx="3" ry="3" style="stroke:#038048;stroke-width:1.0;"/><text fill="#000000" font-family="sans-serif" font-size="14" lengthAdjust="spacing" textLength="137" x="1871" y="383.8551">String provideData()</text></g><!--class AbstractDataManagement--><g id="elem_AbstractDataManagement"><rect codeLine="34" fill="#F1F1F1" height="113.1875" id="AbstractDataManagement" rx="2.5" ry="2.5" style="stroke:#181818;stroke-width:0.5;" width="212" x="718.5" y="302.42"/><ellipse cx="733.5" cy="318.42" fill="#A9DCDF" rx="11" ry="11" style="stroke:#181818;stroke-width:1.0;"/><path d="M733.6094,313.7638 L732.4531,318.8419 L734.7813,318.8419 L733.6094,313.7638 Z M732.125,311.5294 L735.1094,311.5294 L738.4688,323.92 L736.0156,323.92 L735.25,320.8575 L731.9688,320.8575 L731.2188,323.92 L728.7813,323.92 L732.125,311.5294 Z " fill="#000000"/><text fill="#000000" font-family="sans-serif" font-size="14" font-style="italic" lengthAdjust="spacing" textLength="180" x="747.5" y="323.2667">AbstractDataManagement</text><line style="stroke:#181818;stroke-width:0.5;" x1="719.5" x2="929.5" y1="334.42" y2="334.42"/><line style="stroke:#181818;stroke-width:0.5;" x1="719.5" x2="929.5" y1="342.42" y2="342.42"/><ellipse cx="729.5" cy="356.0684" fill="#84BE84" rx="3" ry="3" style="stroke:#038048;stroke-width:1.0;"/><text fill="#000000" font-family="sans-serif" font-size="14" lengthAdjust="spacing" textLength="106" x="738.5" y="359.4151">void saveData()</text><ellipse cx="729.5" cy="372.3653" fill="#84BE84" rx="3" ry="3" style="stroke:#038048;stroke-width:1.0;"/><text fill="#000000" font-family="sans-serif" font-size="14" lengthAdjust="spacing" textLength="118" x="738.5" y="375.712">void deleteData()</text><ellipse cx="729.5" cy="388.6622" fill="#84BE84" rx="3" ry="3" style="stroke:#038048;stroke-width:1.0;"/><text fill="#000000" font-family="sans-serif" font-size="14" lengthAdjust="spacing" textLength="123" x="738.5" y="392.0089">void updateData()</text><ellipse cx="729.5" cy="404.9591" fill="#84BE84" rx="3" ry="3" style="stroke:#038048;stroke-width:1.0;"/><text fill="#000000" font-family="sans-serif" font-size="14" lengthAdjust="spacing" textLength="138" x="738.5" y="408.3057">String retrieveData()</text></g><!--class AbstractSolarCalculator--><g id="elem_AbstractSolarCalculator"><rect codeLine="41" fill="#F1F1F1" height="80.5938" id="AbstractSolarCalculator" rx="2.5" ry="2.5" style="stroke:#181818;stroke-width:0.5;" width="706" x="2049.5" y="318.71"/><ellipse cx="2318.75" cy="334.71" fill="#A9DCDF" rx="11" ry="11" style="stroke:#181818;stroke-width:1.0;"/><path d="M2318.8594,330.0538 L2317.7031,335.1319 L2320.0313,335.1319 L2318.8594,330.0538 Z M2317.375,327.8194 L2320.3594,327.8194 L2323.7188,340.21 L2321.2656,340.21 L2320.5,337.1475 L2317.2188,337.1475 L2316.4688,340.21 L2314.0313,340.21 L2317.375,327.8194 Z " fill="#000000"/><text fill="#000000" font-family="sans-serif" font-size="14" font-style="italic" lengthAdjust="spacing" textLength="159" x="2339.25" y="339.5567">AbstractSolarCalculator</text><line style="stroke:#181818;stroke-width:0.5;" x1="2050.5" x2="2754.5" y1="350.71" y2="350.71"/><line style="stroke:#181818;stroke-width:0.5;" x1="2050.5" x2="2754.5" y1="358.71" y2="358.71"/><ellipse cx="2060.5" cy="372.3584" fill="#84BE84" rx="3" ry="3" style="stroke:#038048;stroke-width:1.0;"/><text fill="#000000" font-family="sans-serif" font-size="14" lengthAdjust="spacing" textLength="680" x="2069.5" y="375.7051">double calculatePowerGenerated(double solarRadiation, double panelEfficiency, double panelArea)</text><ellipse cx="2060.5" cy="388.6553" fill="#84BE84" rx="3" ry="3" style="stroke:#038048;stroke-width:1.0;"/><text fill="#000000" font-family="sans-serif" font-size="14" lengthAdjust="spacing" textLength="635" x="2069.5" y="392.002">double calculateEstimatedCost(double installationCost, int panelQuantity, double panelCost)</text></g><!--class AbstractSolarSystemData--><g id="elem_AbstractSolarSystemData"><rect codeLine="46" fill="#F1F1F1" height="194.6719" id="AbstractSolarSystemData" rx="2.5" ry="2.5" style="stroke:#181818;stroke-width:0.5;" width="344" x="2790.5" y="261.67"/><ellipse cx="2871.25" cy="277.67" fill="#A9DCDF" rx="11" ry="11" style="stroke:#181818;stroke-width:1.0;"/><path d="M2871.3594,273.0138 L2870.2031,278.0919 L2872.5313,278.0919 L2871.3594,273.0138 Z M2869.875,270.7794 L2872.8594,270.7794 L2876.2188,283.17 L2873.7656,283.17 L2873,280.1075 L2869.7188,280.1075 L2868.9688,283.17 L2866.5313,283.17 L2869.875,270.7794 Z " fill="#000000"/><text fill="#000000" font-family="sans-serif" font-size="14" font-style="italic" lengthAdjust="spacing" textLength="174" x="2891.75" y="282.5167">AbstractSolarSystemData</text><line style="stroke:#181818;stroke-width:0.5;" x1="2791.5" x2="3133.5" y1="293.67" y2="293.67"/><rect fill="none" height="6" style="stroke:#C82930;stroke-width:1.0;" width="6" x="2798.5" y="304.3184"/><text fill="#000000" font-family="sans-serif" font-size="14" lengthAdjust="spacing" textLength="143" x="2810.5" y="310.6651">String systemDesign</text><rect fill="none" height="6" style="stroke:#C82930;stroke-width:1.0;" width="6" x="2798.5" y="320.6153"/><text fill="#000000" font-family="sans-serif" font-size="14" lengthAdjust="spacing" textLength="153" x="2810.5" y="326.962">double estimatedCost</text><rect fill="none" height="6" style="stroke:#C82930;stroke-width:1.0;" width="6" x="2798.5" y="336.9122"/><text fill="#000000" font-family="sans-serif" font-size="14" lengthAdjust="spacing" textLength="140" x="2810.5" y="343.2589">Date simulationDate</text><line style="stroke:#181818;stroke-width:0.5;" x1="2791.5" x2="3133.5" y1="350.5606" y2="350.5606"/><ellipse cx="2801.5" cy="364.2091" fill="#84BE84" rx="3" ry="3" style="stroke:#038048;stroke-width:1.0;"/><text fill="#000000" font-family="sans-serif" font-size="14" lengthAdjust="spacing" textLength="177" x="2810.5" y="367.5557">String getSystemDesign()</text><ellipse cx="2801.5" cy="380.5059" fill="#84BE84" rx="3" ry="3" style="stroke:#038048;stroke-width:1.0;"/><text fill="#000000" font-family="sans-serif" font-size="14" lengthAdjust="spacing" textLength="307" x="2810.5" y="383.8526">void setSystemDesign(String systemDesign)</text><ellipse cx="2801.5" cy="396.8028" fill="#84BE84" rx="3" ry="3" style="stroke:#038048;stroke-width:1.0;"/><text fill="#000000" font-family="sans-serif" font-size="14" lengthAdjust="spacing" textLength="186" x="2810.5" y="400.1495">double getEstimatedCost()</text><ellipse cx="2801.5" cy="413.0997" fill="#84BE84" rx="3" ry="3" style="stroke:#038048;stroke-width:1.0;"/><text fill="#000000" font-family="sans-serif" font-size="14" lengthAdjust="spacing" textLength="318" x="2810.5" y="416.4464">void setEstimatedCost(double estimatedCost)</text><ellipse cx="2801.5" cy="429.3966" fill="#84BE84" rx="3" ry="3" style="stroke:#038048;stroke-width:1.0;"/><text fill="#000000" font-family="sans-serif" font-size="14" lengthAdjust="spacing" textLength="174" x="2810.5" y="432.7432">Date getSimulationDate()</text><ellipse cx="2801.5" cy="445.6934" fill="#84BE84" rx="3" ry="3" style="stroke:#038048;stroke-width:1.0;"/><text fill="#000000" font-family="sans-serif" font-size="14" lengthAdjust="spacing" textLength="308" x="2810.5" y="449.0401">void setSimulationDate(Date simulationDate)</text></g><!--class User--><g id="elem_User"><rect codeLine="58" fill="#F1F1F1" height="96.8906" id="User" rx="2.5" ry="2.5" style="stroke:#181818;stroke-width:0.5;" width="275" x="7" y="55.89"/><ellipse cx="124.25" cy="71.89" fill="#ADD1B2" rx="11" ry="11" style="stroke:#181818;stroke-width:1.0;"/><path d="M127.2188,77.5306 Q126.6406,77.8275 126,77.9681 Q125.3594,78.1244 124.6563,78.1244 Q122.1563,78.1244 120.8281,76.4838 Q119.5156,74.8275 119.5156,71.7025 Q119.5156,68.5775 120.8281,66.9213 Q122.1563,65.265 124.6563,65.265 Q125.3594,65.265 126,65.4213 Q126.6563,65.5775 127.2188,65.8744 L127.2188,68.5931 Q126.5938,68.015 126,67.7494 Q125.4063,67.4681 124.7813,67.4681 Q123.4375,67.4681 122.75,68.5463 Q122.0625,69.6088 122.0625,71.7025 Q122.0625,73.7963 122.75,74.8744 Q123.4375,75.9369 124.7813,75.9369 Q125.4063,75.9369 126,75.6713 Q126.5938,75.39 127.2188,74.8119 L127.2188,77.5306 Z " fill="#000000"/><text fill="#000000" font-family="sans-serif" font-size="14" lengthAdjust="spacing" textLength="32" x="144.75" y="76.7367">User</text><line style="stroke:#181818;stroke-width:0.5;" x1="8" x2="281" y1="87.89" y2="87.89"/><rect fill="none" height="6" style="stroke:#C82930;stroke-width:1.0;" width="6" x="15" y="98.5384"/><text fill="#000000" font-family="sans-serif" font-size="14" lengthAdjust="spacing" textLength="114" x="27" y="104.8851">String username</text><line style="stroke:#181818;stroke-width:0.5;" x1="8" x2="281" y1="112.1869" y2="112.1869"/><ellipse cx="18" cy="125.8353" fill="#84BE84" rx="3" ry="3" style="stroke:#038048;stroke-width:1.0;"/><text fill="#000000" font-family="sans-serif" font-size="14" lengthAdjust="spacing" textLength="148" x="27" y="129.182">String getUsername()</text><ellipse cx="18" cy="142.1322" fill="#84BE84" rx="3" ry="3" style="stroke:#038048;stroke-width:1.0;"/><text fill="#000000" font-family="sans-serif" font-size="14" lengthAdjust="spacing" textLength="249" x="27" y="145.4789">void setUsername(String username)</text></g><!--class Company--><g id="elem_Company"><rect codeLine="64" fill="#F1F1F1" height="96.8906" id="Company" rx="2.5" ry="2.5" style="stroke:#181818;stroke-width:0.5;" width="342" x="1212.5" y="55.89"/><ellipse cx="1346.75" cy="71.89" fill="#ADD1B2" rx="11" ry="11" style="stroke:#181818;stroke-width:1.0;"/><path d="M1349.7188,77.5306 Q1349.1406,77.8275 1348.5,77.9681 Q1347.8594,78.1244 1347.1563,78.1244 Q1344.6563,78.1244 1343.3281,76.4838 Q1342.0156,74.8275 1342.0156,71.7025 Q1342.0156,68.5775 1343.3281,66.9213 Q1344.6563,65.265 1347.1563,65.265 Q1347.8594,65.265 1348.5,65.4213 Q1349.1563,65.5775 1349.7188,65.8744 L1349.7188,68.5931 Q1349.0938,68.015 1348.5,67.7494 Q1347.9063,67.4681 1347.2813,67.4681 Q1345.9375,67.4681 1345.25,68.5463 Q1344.5625,69.6088 1344.5625,71.7025 Q1344.5625,73.7963 1345.25,74.8744 Q1345.9375,75.9369 1347.2813,75.9369 Q1347.9063,75.9369 1348.5,75.6713 Q1349.0938,75.39 1349.7188,74.8119 L1349.7188,77.5306 Z " fill="#000000"/><text fill="#000000" font-family="sans-serif" font-size="14" lengthAdjust="spacing" textLength="65" x="1367.25" y="76.7367">Company</text><line style="stroke:#181818;stroke-width:0.5;" x1="1213.5" x2="1553.5" y1="87.89" y2="87.89"/><rect fill="none" height="6" style="stroke:#C82930;stroke-width:1.0;" width="6" x="1220.5" y="98.5384"/><text fill="#000000" font-family="sans-serif" font-size="14" lengthAdjust="spacing" textLength="147" x="1232.5" y="104.8851">String companyName</text><line style="stroke:#181818;stroke-width:0.5;" x1="1213.5" x2="1553.5" y1="112.1869" y2="112.1869"/><ellipse cx="1223.5" cy="125.8353" fill="#84BE84" rx="3" ry="3" style="stroke:#038048;stroke-width:1.0;"/><text fill="#000000" font-family="sans-serif" font-size="14" lengthAdjust="spacing" textLength="182" x="1232.5" y="129.182">String getCompanyName()</text><ellipse cx="1223.5" cy="142.1322" fill="#84BE84" rx="3" ry="3" style="stroke:#038048;stroke-width:1.0;"/><text fill="#000000" font-family="sans-serif" font-size="14" lengthAdjust="spacing" textLength="316" x="1232.5" y="145.4789">void setCompanyName(String companyName)</text></g><!--class Product--><g id="elem_Product"><rect codeLine="70" fill="#F1F1F1" height="96.8906" id="Product" rx="2.5" ry="2.5" style="stroke:#181818;stroke-width:0.5;" width="213" x="965" y="310.56"/><ellipse cx="1040.25" cy="326.56" fill="#ADD1B2" rx="11" ry="11" style="stroke:#181818;stroke-width:1.0;"/><path d="M1043.2188,332.2006 Q1042.6406,332.4975 1042,332.6381 Q1041.3594,332.7944 1040.6563,332.7944 Q1038.1563,332.7944 1036.8281,331.1538 Q1035.5156,329.4975 1035.5156,326.3725 Q1035.5156,323.2475 1036.8281,321.5913 Q1038.1563,319.935 1040.6563,319.935 Q1041.3594,319.935 1042,320.0913 Q1042.6563,320.2475 1043.2188,320.5444 L1043.2188,323.2631 Q1042.5938,322.685 1042,322.4194 Q1041.4063,322.1381 1040.7813,322.1381 Q1039.4375,322.1381 1038.75,323.2163 Q1038.0625,324.2788 1038.0625,326.3725 Q1038.0625,328.4663 1038.75,329.5444 Q1039.4375,330.6069 1040.7813,330.6069 Q1041.4063,330.6069 1042,330.3413 Q1042.5938,330.06 1043.2188,329.4819 L1043.2188,332.2006 Z " fill="#000000"/><text fill="#000000" font-family="sans-serif" font-size="14" lengthAdjust="spacing" textLength="54" x="1060.75" y="331.4067">Product</text><line style="stroke:#181818;stroke-width:0.5;" x1="966" x2="1177" y1="342.56" y2="342.56"/><rect fill="none" height="6" style="stroke:#C82930;stroke-width:1.0;" width="6" x="973" y="353.2084"/><text fill="#000000" font-family="sans-serif" font-size="14" lengthAdjust="spacing" textLength="83" x="985" y="359.5551">String name</text><line style="stroke:#181818;stroke-width:0.5;" x1="966" x2="1177" y1="366.8569" y2="366.8569"/><ellipse cx="976" cy="380.5053" fill="#84BE84" rx="3" ry="3" style="stroke:#038048;stroke-width:1.0;"/><text fill="#000000" font-family="sans-serif" font-size="14" lengthAdjust="spacing" textLength="117" x="985" y="383.852">String getName()</text><ellipse cx="976" cy="396.8022" fill="#84BE84" rx="3" ry="3" style="stroke:#038048;stroke-width:1.0;"/><text fill="#000000" font-family="sans-serif" font-size="14" lengthAdjust="spacing" textLength="187" x="985" y="400.1489">void setName(String name)</text></g><!--class Offer--><g id="elem_Offer"><rect codeLine="76" fill="#F1F1F1" height="96.8906" id="Offer" rx="2.5" ry="2.5" style="stroke:#181818;stroke-width:0.5;" width="226" x="1589.5" y="55.89"/><ellipse cx="1681.75" cy="71.89" fill="#ADD1B2" rx="11" ry="11" style="stroke:#181818;stroke-width:1.0;"/><path d="M1684.7188,77.5306 Q1684.1406,77.8275 1683.5,77.9681 Q1682.8594,78.1244 1682.1563,78.1244 Q1679.6563,78.1244 1678.3281,76.4838 Q1677.0156,74.8275 1677.0156,71.7025 Q1677.0156,68.5775 1678.3281,66.9213 Q1679.6563,65.265 1682.1563,65.265 Q1682.8594,65.265 1683.5,65.4213 Q1684.1563,65.5775 1684.7188,65.8744 L1684.7188,68.5931 Q1684.0938,68.015 1683.5,67.7494 Q1682.9063,67.4681 1682.2813,67.4681 Q1680.9375,67.4681 1680.25,68.5463 Q1679.5625,69.6088 1679.5625,71.7025 Q1679.5625,73.7963 1680.25,74.8744 Q1680.9375,75.9369 1682.2813,75.9369 Q1682.9063,75.9369 1683.5,75.6713 Q1684.0938,75.39 1684.7188,74.8119 L1684.7188,77.5306 Z " fill="#000000"/><text fill="#000000" font-family="sans-serif" font-size="14" lengthAdjust="spacing" textLength="33" x="1702.25" y="76.7367">Offer</text><line style="stroke:#181818;stroke-width:0.5;" x1="1590.5" x2="1814.5" y1="87.89" y2="87.89"/><rect fill="none" height="6" style="stroke:#C82930;stroke-width:1.0;" width="6" x="1597.5" y="98.5384"/><text fill="#000000" font-family="sans-serif" font-size="14" lengthAdjust="spacing" textLength="89" x="1609.5" y="104.8851">String details</text><line style="stroke:#181818;stroke-width:0.5;" x1="1590.5" x2="1814.5" y1="112.1869" y2="112.1869"/><ellipse cx="1600.5" cy="125.8353" fill="#84BE84" rx="3" ry="3" style="stroke:#038048;stroke-width:1.0;"/><text fill="#000000" font-family="sans-serif" font-size="14" lengthAdjust="spacing" textLength="124" x="1609.5" y="129.182">String getDetails()</text><ellipse cx="1600.5" cy="142.1322" fill="#84BE84" rx="3" ry="3" style="stroke:#038048;stroke-width:1.0;"/><text fill="#000000" font-family="sans-serif" font-size="14" lengthAdjust="spacing" textLength="200" x="1609.5" y="145.4789">void setDetails(String details)</text></g><!--class Marketplace--><g id="elem_Marketplace"><rect codeLine="82" fill="#F1F1F1" height="96.8906" id="Marketplace" rx="2.5" ry="2.5" style="stroke:#181818;stroke-width:0.5;" width="254" x="697.5" y="55.89"/><ellipse cx="778.25" cy="71.89" fill="#ADD1B2" rx="11" ry="11" style="stroke:#181818;stroke-width:1.0;"/><path d="M781.2188,77.5306 Q780.6406,77.8275 780,77.9681 Q779.3594,78.1244 778.6563,78.1244 Q776.1563,78.1244 774.8281,76.4838 Q773.5156,74.8275 773.5156,71.7025 Q773.5156,68.5775 774.8281,66.9213 Q776.1563,65.265 778.6563,65.265 Q779.3594,65.265 780,65.4213 Q780.6563,65.5775 781.2188,65.8744 L781.2188,68.5931 Q780.5938,68.015 780,67.7494 Q779.4063,67.4681 778.7813,67.4681 Q777.4375,67.4681 776.75,68.5463 Q776.0625,69.6088 776.0625,71.7025 Q776.0625,73.7963 776.75,74.8744 Q777.4375,75.9369 778.7813,75.9369 Q779.4063,75.9369 780,75.6713 Q780.5938,75.39 781.2188,74.8119 L781.2188,77.5306 Z " fill="#000000"/><text fill="#000000" font-family="sans-serif" font-size="14" lengthAdjust="spacing" textLength="84" x="798.75" y="76.7367">Marketplace</text><line style="stroke:#181818;stroke-width:0.5;" x1="698.5" x2="950.5" y1="87.89" y2="87.89"/><rect fill="none" height="6" style="stroke:#C82930;stroke-width:1.0;" width="6" x="705.5" y="98.5384"/><text fill="#000000" font-family="sans-serif" font-size="14" lengthAdjust="spacing" textLength="167" x="717.5" y="104.8851">List&lt;Product&gt; products</text><line style="stroke:#181818;stroke-width:0.5;" x1="698.5" x2="950.5" y1="112.1869" y2="112.1869"/><ellipse cx="708.5" cy="125.8353" fill="#84BE84" rx="3" ry="3" style="stroke:#038048;stroke-width:1.0;"/><text fill="#000000" font-family="sans-serif" font-size="14" lengthAdjust="spacing" textLength="174" x="717.5" y="129.182">void postOffer(Offer offer)</text><ellipse cx="708.5" cy="142.1322" fill="#84BE84" rx="3" ry="3" style="stroke:#038048;stroke-width:1.0;"/><text fill="#000000" font-family="sans-serif" font-size="14" lengthAdjust="spacing" textLength="228" x="717.5" y="145.4789">List&lt;Product&gt; browseProducts()</text></g><!--class SolarCalculator--><g id="elem_SolarCalculator"><rect codeLine="88" fill="#F1F1F1" height="80.5938" id="SolarCalculator" rx="2.5" ry="2.5" style="stroke:#181818;stroke-width:0.5;" width="706" x="2049.5" y="64.04"/><ellipse cx="2347.25" cy="80.04" fill="#ADD1B2" rx="11" ry="11" style="stroke:#181818;stroke-width:1.0;"/><path d="M2350.2188,85.6806 Q2349.6406,85.9775 2349,86.1181 Q2348.3594,86.2744 2347.6563,86.2744 Q2345.1563,86.2744 2343.8281,84.6338 Q2342.5156,82.9775 2342.5156,79.8525 Q2342.5156,76.7275 2343.8281,75.0713 Q2345.1563,73.415 2347.6563,73.415 Q2348.3594,73.415 2349,73.5713 Q2349.6563,73.7275 2350.2188,74.0244 L2350.2188,76.7431 Q2349.5938,76.165 2349,75.8994 Q2348.4063,75.6181 2347.7813,75.6181 Q2346.4375,75.6181 2345.75,76.6963 Q2345.0625,77.7588 2345.0625,79.8525 Q2345.0625,81.9463 2345.75,83.0244 Q2346.4375,84.0869 2347.7813,84.0869 Q2348.4063,84.0869 2349,83.8213 Q2349.5938,83.54 2350.2188,82.9619 L2350.2188,85.6806 Z " fill="#000000"/><text fill="#000000" font-family="sans-serif" font-size="14" lengthAdjust="spacing" textLength="102" x="2367.75" y="84.8867">SolarCalculator</text><line style="stroke:#181818;stroke-width:0.5;" x1="2050.5" x2="2754.5" y1="96.04" y2="96.04"/><line style="stroke:#181818;stroke-width:0.5;" x1="2050.5" x2="2754.5" y1="104.04" y2="104.04"/><ellipse cx="2060.5" cy="117.6884" fill="#84BE84" rx="3" ry="3" style="stroke:#038048;stroke-width:1.0;"/><text fill="#000000" font-family="sans-serif" font-size="14" lengthAdjust="spacing" textLength="680" x="2069.5" y="121.0351">double calculatePowerGenerated(double solarRadiation, double panelEfficiency, double panelArea)</text><ellipse cx="2060.5" cy="133.9853" fill="#84BE84" rx="3" ry="3" style="stroke:#038048;stroke-width:1.0;"/><text fill="#000000" font-family="sans-serif" font-size="14" lengthAdjust="spacing" textLength="635" x="2069.5" y="137.332">double calculateEstimatedCost(double installationCost, int panelQuantity, double panelCost)</text></g><!--class SolarSystemData--><g id="elem_SolarSystemData"><rect codeLine="93" fill="#F1F1F1" height="194.6719" id="SolarSystemData" rx="2.5" ry="2.5" style="stroke:#181818;stroke-width:0.5;" width="344" x="2790.5" y="7"/><ellipse cx="2899.75" cy="23" fill="#ADD1B2" rx="11" ry="11" style="stroke:#181818;stroke-width:1.0;"/><path d="M2902.7188,28.6406 Q2902.1406,28.9375 2901.5,29.0781 Q2900.8594,29.2344 2900.1563,29.2344 Q2897.6563,29.2344 2896.3281,27.5938 Q2895.0156,25.9375 2895.0156,22.8125 Q2895.0156,19.6875 2896.3281,18.0313 Q2897.6563,16.375 2900.1563,16.375 Q2900.8594,16.375 2901.5,16.5313 Q2902.1563,16.6875 2902.7188,16.9844 L2902.7188,19.7031 Q2902.0938,19.125 2901.5,18.8594 Q2900.9063,18.5781 2900.2813,18.5781 Q2898.9375,18.5781 2898.25,19.6563 Q2897.5625,20.7188 2897.5625,22.8125 Q2897.5625,24.9063 2898.25,25.9844 Q2898.9375,27.0469 2900.2813,27.0469 Q2900.9063,27.0469 2901.5,26.7813 Q2902.0938,26.5 2902.7188,25.9219 L2902.7188,28.6406 Z " fill="#000000"/><text fill="#000000" font-family="sans-serif" font-size="14" lengthAdjust="spacing" textLength="117" x="2920.25" y="27.8467">SolarSystemData</text><line style="stroke:#181818;stroke-width:0.5;" x1="2791.5" x2="3133.5" y1="39" y2="39"/><rect fill="none" height="6" style="stroke:#C82930;stroke-width:1.0;" width="6" x="2798.5" y="49.6484"/><text fill="#000000" font-family="sans-serif" font-size="14" lengthAdjust="spacing" textLength="143" x="2810.5" y="55.9951">String systemDesign</text><rect fill="none" height="6" style="stroke:#C82930;stroke-width:1.0;" width="6" x="2798.5" y="65.9453"/><text fill="#000000" font-family="sans-serif" font-size="14" lengthAdjust="spacing" textLength="153" x="2810.5" y="72.292">double estimatedCost</text><rect fill="none" height="6" style="stroke:#C82930;stroke-width:1.0;" width="6" x="2798.5" y="82.2422"/><text fill="#000000" font-family="sans-serif" font-size="14" lengthAdjust="spacing" textLength="140" x="2810.5" y="88.5889">Date simulationDate</text><line style="stroke:#181818;stroke-width:0.5;" x1="2791.5" x2="3133.5" y1="95.8906" y2="95.8906"/><ellipse cx="2801.5" cy="109.5391" fill="#84BE84" rx="3" ry="3" style="stroke:#038048;stroke-width:1.0;"/><text fill="#000000" font-family="sans-serif" font-size="14" lengthAdjust="spacing" textLength="177" x="2810.5" y="112.8857">String getSystemDesign()</text><ellipse cx="2801.5" cy="125.8359" fill="#84BE84" rx="3" ry="3" style="stroke:#038048;stroke-width:1.0;"/><text fill="#000000" font-family="sans-serif" font-size="14" lengthAdjust="spacing" textLength="307" x="2810.5" y="129.1826">void setSystemDesign(String systemDesign)</text><ellipse cx="2801.5" cy="142.1328" fill="#84BE84" rx="3" ry="3" style="stroke:#038048;stroke-width:1.0;"/><text fill="#000000" font-family="sans-serif" font-size="14" lengthAdjust="spacing" textLength="186" x="2810.5" y="145.4795">double getEstimatedCost()</text><ellipse cx="2801.5" cy="158.4297" fill="#84BE84" rx="3" ry="3" style="stroke:#038048;stroke-width:1.0;"/><text fill="#000000" font-family="sans-serif" font-size="14" lengthAdjust="spacing" textLength="318" x="2810.5" y="161.7764">void setEstimatedCost(double estimatedCost)</text><ellipse cx="2801.5" cy="174.7266" fill="#84BE84" rx="3" ry="3" style="stroke:#038048;stroke-width:1.0;"/><text fill="#000000" font-family="sans-serif" font-size="14" lengthAdjust="spacing" textLength="174" x="2810.5" y="178.0732">Date getSimulationDate()</text><ellipse cx="2801.5" cy="191.0234" fill="#84BE84" rx="3" ry="3" style="stroke:#038048;stroke-width:1.0;"/><text fill="#000000" font-family="sans-serif" font-size="14" lengthAdjust="spacing" textLength="308" x="2810.5" y="194.3701">void setSimulationDate(Date simulationDate)</text></g><!--class DataProviderImpl--><g id="elem_DataProviderImpl"><rect codeLine="105" fill="#F1F1F1" height="64.2969" id="DataProviderImpl" rx="2.5" ry="2.5" style="stroke:#181818;stroke-width:0.5;" width="163" x="1851" y="72.19"/><ellipse cx="1872.75" cy="88.19" fill="#ADD1B2" rx="11" ry="11" style="stroke:#181818;stroke-width:1.0;"/><path d="M1875.7188,93.8306 Q1875.1406,94.1275 1874.5,94.2681 Q1873.8594,94.4244 1873.1563,94.4244 Q1870.6563,94.4244 1869.3281,92.7838 Q1868.0156,91.1275 1868.0156,88.0025 Q1868.0156,84.8775 1869.3281,83.2213 Q1870.6563,81.565 1873.1563,81.565 Q1873.8594,81.565 1874.5,81.7213 Q1875.1563,81.8775 1875.7188,82.1744 L1875.7188,84.8931 Q1875.0938,84.315 1874.5,84.0494 Q1873.9063,83.7681 1873.2813,83.7681 Q1871.9375,83.7681 1871.25,84.8463 Q1870.5625,85.9088 1870.5625,88.0025 Q1870.5625,90.0963 1871.25,91.1744 Q1871.9375,92.2369 1873.2813,92.2369 Q1873.9063,92.2369 1874.5,91.9713 Q1875.0938,91.69 1875.7188,91.1119 L1875.7188,93.8306 Z " fill="#000000"/><text fill="#000000" font-family="sans-serif" font-size="14" lengthAdjust="spacing" textLength="116" x="1888.25" y="93.0367">DataProviderImpl</text><line style="stroke:#181818;stroke-width:0.5;" x1="1852" x2="2013" y1="104.19" y2="104.19"/><line style="stroke:#181818;stroke-width:0.5;" x1="1852" x2="2013" y1="112.19" y2="112.19"/><ellipse cx="1862" cy="125.8384" fill="#84BE84" rx="3" ry="3" style="stroke:#038048;stroke-width:1.0;"/><text fill="#000000" font-family="sans-serif" font-size="14" lengthAdjust="spacing" textLength="137" x="1871" y="129.1851">String provideData()</text></g><!--link User to IUser--><g id="link_User_IUser"><path codeLine="109" d="M144.5,153.16 C144.5,200.95 144.5,255.56 144.5,300.28 " fill="none" id="User-to-IUser" style="stroke:#181818;stroke-width:1.0;"/><polygon fill="none" points="144.5,318.28,150.5,300.28,138.5,300.28,144.5,318.28" style="stroke:#181818;stroke-width:1.0;"/></g><!--link Company to ICompany--><g id="link_Company_ICompany"><path codeLine="110" d="M1383.5,153.16 C1383.5,200.95 1383.5,255.56 1383.5,300.28 " fill="none" id="Company-to-ICompany" style="stroke:#181818;stroke-width:1.0;"/><polygon fill="none" points="1383.5,318.28,1389.5,300.28,1377.5,300.28,1383.5,318.28" style="stroke:#181818;stroke-width:1.0;"/></g><!--link Product to IProduct--><g id="link_Product_IProduct"><path codeLine="111" d="M1071.5,407.87 C1071.5,441.01 1071.5,466.62 1071.5,497.85 " fill="none" id="Product-to-IProduct" style="stroke:#181818;stroke-width:1.0;"/><polygon fill="none" points="1071.5,515.85,1077.5,497.85,1065.5,497.85,1071.5,515.85" style="stroke:#181818;stroke-width:1.0;"/></g><!--link Offer to IOffer--><g id="link_Offer_IOffer"><path codeLine="112" d="M1702.5,153.16 C1702.5,200.95 1702.5,255.56 1702.5,300.28 " fill="none" id="Offer-to-IOffer" style="stroke:#181818;stroke-width:1.0;"/><polygon fill="none" points="1702.5,318.28,1708.5,300.28,1696.5,300.28,1702.5,318.28" style="stroke:#181818;stroke-width:1.0;"/></g><!--link Marketplace to IMarketplace--><g id="link_Marketplace_IMarketplace"><path codeLine="113" d="M773.78,153.16 C723.09,200.95 659.1653,261.2103 611.7453,305.9303 " fill="none" id="Marketplace-to-IMarketplace" style="stroke:#181818;stroke-width:1.0;"/><polygon fill="none" points="598.65,318.28,615.8618,310.2954,607.6287,301.5653,598.65,318.28" style="stroke:#181818;stroke-width:1.0;"/></g><!--link Marketplace to AbstractDataManagement--><g id="link_Marketplace_AbstractDataManagement"><path codeLine="114" d="M824.5,153.16 C824.5,195.51 824.5,239.36 824.5,284.01 " fill="none" id="Marketplace-to-AbstractDataManagement" style="stroke:#181818;stroke-width:1.0;stroke-dasharray:7.0,7.0;"/><polygon fill="none" points="824.5,302.01,830.5,284.01,818.5,284.01,824.5,302.01" style="stroke:#181818;stroke-width:1.0;"/></g><!--link SolarCalculator to AbstractSolarCalculator--><g id="link_SolarCalculator_AbstractSolarCalculator"><path codeLine="115" d="M2402.5,145.1 C2402.5,192.49 2402.5,253.2 2402.5,300.48 " fill="none" id="SolarCalculator-to-AbstractSolarCalculator" style="stroke:#181818;stroke-width:1.0;"/><polygon fill="none" points="2402.5,318.48,2408.5,300.48,2396.5,300.48,2402.5,318.48" style="stroke:#181818;stroke-width:1.0;"/></g><!--link SolarSystemData to AbstractSolarSystemData--><g id="link_SolarSystemData_AbstractSolarSystemData"><path codeLine="116" d="M2962.5,201.94 C2962.5,221.45 2962.5,223.96 2962.5,243.46 " fill="none" id="SolarSystemData-to-AbstractSolarSystemData" style="stroke:#181818;stroke-width:1.0;"/><polygon fill="none" points="2962.5,261.46,2968.5,243.46,2956.5,243.46,2962.5,261.46" style="stroke:#181818;stroke-width:1.0;"/></g><!--link DataProviderImpl to IDataProvider--><g id="link_DataProviderImpl_IDataProvider"><path codeLine="117" d="M1932.5,136.83 C1932.5,185.38 1932.5,259.97 1932.5,308.52 " fill="none" id="DataProviderImpl-to-IDataProvider" style="stroke:#181818;stroke-width:1.0;"/><polygon fill="none" points="1932.5,326.52,1938.5,308.52,1926.5,308.52,1932.5,326.52" style="stroke:#181818;stroke-width:1.0;"/></g><!--reverse link Marketplace to Product--><g id="link_Marketplace_Product"><path codeLine="118" d="M879.6376,161.7418 C923.6876,206.8118 980.95,265.38 1024.94,310.38 " fill="none" id="Marketplace-backto-Product" style="stroke:#181818;stroke-width:1.0;"/><polygon fill="none" points="871.25,153.16,872.5832,160.2468,879.6376,161.7418,878.3044,154.655,871.25,153.16" style="stroke:#181818;stroke-width:1.0;"/></g><!--SRC=[xLRHRjiW57tdA_oOQ7M_OAfKfTLKQUswMVk06_iwGiDW0KuLTVltWI-k0RkAjELfMXwQt7FXtCC53kNIecwXnkBXkq5TlBB2VJvKLdDvA0veFIgXmysMCaV5cy94U1WwX7ZBVZ76PzPA2T3LoLZiAjuD0YnNygtCdBm32uMX4KZGHCrbFzYSzrchPgZjKl3JYjYdIEYQo9tgUf2d9Lb8h776gJ2Xdg6ymfUsNUlk7LhWmkJS4nm6DXJcd8-WVw3jXGzU8u9U6JlMsr1LvV-62f-viHz3xswAlLOl1aFeLQG5_9wuv94t2-qzmNu4JOEziHhSXjG2Z2bkG-W7F8A40tOeRIBJm76QFuCD2hHBUEWRIE6WGwFxnkDv8UDHsu6e_G5JRyjfrB0NMDGXWS_g1VKdbAXTq6n2slZ9tw3Xu-czAWBiDXl5VTlocgEiJob-gn6swqNkZUMTvz-vdPfgS6ai2BeV7hzoY2MghmD8osrMm0ywk-BeSj6Aoz0uGmaq_20f4RWn5aSPDnsdk-dK-J0_o5L4bv_c9BTIFksI8qlxax6jDYyH7IQCghsqHFX2N9fTMUhOOsfjP95bvdiNyKsgahfHkJINoxeK5Ktzj8pCyeyDbeXZvojJG_jxDwGIIoCiKv_hWyDTp2IfxZ_iAT42_rl89IqaVbCVkbwSUrT7oodBdpVq3ngRp86W4B7fzX8Q8aOdcx3nDujl2k4HacIlhrrs_HLd-RaVcTvvQ5b-XfQ3voHRT8T4nd2YKfNbv5o_0G00]--></g></svg>